P3
4 4
255
0 0 0  0 0 0  1 1 1  150 0 150  
0 0 0  0 240 60  0 150 70  0 0 0  
0 1 1  0 150 70  0 150 70  0 0 0  
0 0 10  0 0 0  0 0 0  0 0 0  
