P3
4 4
255
0 0 0  0 0 0  0 1 0  0 0 0  
0 0 0  0 240 0  0 150 0  0 0 0  
0 1 0  0 150 0  0 150 0  0 0 0  
0 0 0  0 0 0  0 0 0  0 0 0  
